<svg xmlns="http://www.w3.org/2000/svg" viewBox="0 0 420 420"><style>.a{fill:#FFF;}</style><metadata><variableSets xmlns="vars"><variableSet varSetName="binding1" locked="none"/></variableSets></metadata><path d="M417.4 184.8c14 114-67.4 218.8-182 232.9s-218.9-68-232.9-182L417.4 184.8z" fill="#D13944"/><path d="M2.6 235.7c-14-114 67.4-218.8 182-232.9s218.9 68 232.9 182L2.6 235.7z" fill="#39B278"/><path d="M143.9 73.3l-11.3 125.3 -27.4 3.4 11.6-129.2 -2.3 0.3c-20.2 2.5-34.8 12.2-31 42.8 1.2 9.7 3.8 10.9 4.2 12.6 -13.1 1.6-20.9-2.3-22.6-15.9C62.1 87.2 77 60.8 124 55.1c23-2.8 30.6 0.7 49.2-1.6 8.7-1.1 16.7-4 21.6-6.7 1.6 16.6-5.6 25.2-20.8 27.1C164.6 75 154.5 74.3 143.9 73.3z" class="a"/><path d="M195.5 94.4l-1 12.1c6-6.5 12.4-13.5 21.6-14.6 8.6-1 14 5.4 14.9 12.7 0.8 6.7-2.7 14.4-12 15.6 -10.6 1.3-6.9-11.9-12.6-11.2 -5.7 0.7-8.8 4-13 8.9l-6.4 74.1 -27.4 3.4 8.5-97.5L195.5 94.4z" class="a"/><path d="M267 85.6l-5.8 66.3c-0.2 1.6-0.2 3.3 0 4.8 0.5 4.4 2.4 8.2 6.7 7.7 7.4-0.9 11.5-8.7 13.2-18.6l5.4-62.6 27.4-3.4 -5.8 66.3c-0.3 2.5-0.2 4.5 0 6.2 0.7 5.3 3.3 6.7 8.7 6.1 3.6-0.4 4.5-1.1 6.1-1.9 0.7 13.8-8.4 20.9-18.7 22.2 -10.5 1.3-18.1-4.7-20.8-15.8 -7.6 16.8-18.1 20.6-26.1 21.5 -11.4 1.4-21.2-4.3-23.1-20.3 -0.4-3.6-0.4-7.9 0-12.5l5.4-62.6L267 85.6z" class="a"/><path d="M149.9 338.8l21.6-102.1 11.2-1.4 -29.9 124.8 -24.3 3 -13.4-109.4c-16.8 7.6-22.9 21-20.8 38.6 1 8.2 3.2 9.2 3.6 10.6 -11.1 1.4-17.6-1.9-19-13.4 -2.6-21.3 24.4-45.3 51.1-48.5 2.2-0.3 4.3-0.4 6.4-0.5L149.9 338.8z" class="a"/><path d="M241.3 292.5c0.7 0.2 1.3 0.2 1.8 0.1 7.4-0.9 17.2-7 23.5-12.6l2 4.1c-5.3 7.3-15.3 13.4-26.7 16.8 1.1 29.9-12.7 50.5-32.4 52.9 -14.9 1.8-26.5-3.9-28.7-22.2 -2.3-18.4 3.9-58.2 36.9-62.2C231.4 267.7 239.2 275.7 241.3 292.5zM228.6 303c-3.5-0.4-4.8-3-5.1-6.2 -0.5-4.5 1.2-7.6 3.9-9.3 -1.1-6.7-3.1-9.1-7.2-8.5 -11.4 1.4-17.7 31.9-15.8 47.6 1.3 10.6 3.7 12.7 9.8 12C222 337.6 228.4 322.2 228.6 303z" class="a"/><path d="M282.8 237.2l-2.3 26 9.6-1.2 -0.5 6.6 -9.6 1.2 -4.4 49.3c-0.2 2.1-0.2 3.8 0 5.2 0.5 4.5 2.8 5.7 7.3 5.1 6.2-0.8 11.3-7.6 12.7-15.9l6.7-0.8c-5.9 27.2-21.4 32.7-30 33.8 -9.6 1.2-17.8-3.7-19.5-17.1 -0.4-3-0.3-6.6 0-10.6l4.1-46.2 -5.3 0.6 0.5-6.6 5.3-0.6 2.1-22.7L282.8 237.2z" class="a"/><path d="M328.7 324c6.1-0.7 13.3-5.7 17.9-10.8 -1.1 18.7-12 25.5-24.8 27.1 -14.9 1.8-25.7-4.3-27.9-22.4 -2.3-18.4 3.4-58.3 36.3-62.3 14.3-1.7 18.5 5.2 19.5 13.2 2.3 18.6-13.6 34.8-32.7 38.3 0 1.6 0.1 3.4 0.3 4.8C318.4 322.1 323.1 324.7 328.7 324zM332.4 263.9c-8 1-13.8 19.7-15.3 35.4 12.4-2.2 21.8-15.8 20.1-29.3C336.7 266 335.4 263.6 332.4 263.9z" class="a"/></svg>
 
