<?xml version="1.0" encoding="utf-8"?>
<!-- Generator: Adobe Illustrator 19.1.0, SVG Export Plug-In . SVG Version: 6.00 Build 0)  -->
<svg version="1.1" xmlns:x="extend;" xmlns:i="ai;" xmlns:graph="graphs;" i:viewOrigin="55.2932 -226.8045" i:rulerOrigin="-55.2932 512.5188" i:pageBounds="55.2932 -226.8045 1186.8722 -512.5188" xmlns="http://www.w3.org/2000/svg" xmlns:xlink="http://www.w3.org/1999/xlink" xmlns:a="http://ns.adobe.com/AdobeSVGViewerExtensions/3.0/" x="0px" y="0px" width="1131.6px" height="285.7px" viewBox="0 0 1131.6 285.7" enable-background="new 0 0 1131.6 285.7" xml:space="preserve">
    <metadata>
        <variableSets xmlns="vars;">
            <variableSet varSetName="binding1" locked="none">
                <variables></variables>
                <v:sampleDataSets xmlns:v="vars;" xmlns="custom;"></v:sampleDataSets>
            </variableSet>
        </variableSets>
    </metadata>
    <g id="Layer_1" i:layer="yes" i:dimmedPercent="50" i:rgbTrio="#4F008000FFFF">
        <g i:knockout="Off">
            <g>
                <path i:knockout="Off" fill="#B3B3B3" d="M694.5,199.2c0-18,0.6-30,1.7-36.1c1.2-6.1,3.1-11,5.7-14.7c4.1-7.1,10.6-13.4,19.6-19
				c8.8-5.6,19.9-8.5,33.1-8.6c13.4,0.1,24.5,3,33.4,8.7c8.8,5.6,15.2,11.9,19.1,19.1c2.8,3.7,4.8,8.6,5.9,14.7
				c1,6.1,1.5,18.1,1.5,36c0,17.6-0.5,29.6-1.5,35.8c-1.1,6.2-3,11.2-5.9,14.9c-3.9,7.1-10.3,13.4-19.1,18.8
				c-8.9,5.6-20.1,8.6-33.4,8.9c-13.2-0.3-24.3-3.2-33.1-8.9c-9-5.4-15.5-11.7-19.6-18.8c-1.2-2.3-2.3-4.6-3.3-6.7
				c-0.9-2.2-1.7-4.9-2.3-8.3C695.1,228.8,694.5,216.8,694.5,199.2z M720,199.2c0,15.2,0.6,25.5,1.8,30.9c1.1,5.4,3.3,9.7,6.6,13
				c2.7,3.2,6.2,5.8,10.6,7.7c4.3,2.3,9.5,3.5,15.5,3.5c6.1,0,11.4-1.2,15.8-3.5c4.2-2,7.6-4.6,10.2-7.7c3.3-3.3,5.6-7.7,6.8-13
				c1.2-5.4,1.7-15.7,1.7-30.9c0-15.2-0.6-25.6-1.7-31.1c-1.2-5.2-3.5-9.5-6.8-12.8c-2.5-3.2-5.9-5.8-10.2-8
				c-4.5-2.1-9.7-3.1-15.8-3.3c-6,0.1-11.2,1.2-15.5,3.3c-4.4,2.1-7.9,4.8-10.6,8c-3.3,3.3-5.5,7.6-6.6,12.8
				C720.6,173.6,720,184,720,199.2z" />
                <path i:knockout="Off" fill="#B3B3B3" d="M897.5,142.8h-46.1V122h117.7v20.7H923v133.6h-25.5V142.8z" />
                <path i:knockout="Off" fill="#B3B3B3" d="M1015.3,122h107.4v22h-82v44.2h70v20.7h-70v45.4h82v22h-107.4V122z" />
            </g>
        </g>
        <g i:knockout="Off">
            <path i:knockout="Off" fill="#B3B3B3" d="M51.9,142.8H5.8V122h117.7v20.7H77.4v133.6H51.9V142.8z" />
            <path i:knockout="Off" fill="#B3B3B3" d="M169.7,122h65.7c14,0,25.4,3.4,34.3,10.2c10.7,7.7,16.2,18.7,16.7,32.9
			c-0.3,21-11.1,35.2-32.5,42.8l38.9,68.5h-30.3l-34.8-66h-32.6v66h-25.5V122z M195.2,189.7h38.6c9.6-0.1,16.7-2.7,21.5-7.6
			c4.7-4.6,7.1-10.3,7.1-17c-0.2-8.1-3-13.9-8.4-17.5c-4.3-3.2-10.6-4.8-18.7-4.8h-40V189.7z" />
            <path i:knockout="Off" fill="#B3B3B3" d="M339.7,122h25.5v99.6c0.2,10.5,3.5,18.5,9.9,24c6.3,5.8,14.4,8.7,24.4,8.7
			c9.9,0,18.1-2.9,24.6-8.7c6.3-5.5,9.5-13.5,9.7-24V122h25.5v102c-0.3,16.2-6,29.1-17.2,38.6c-11.2,9.8-25.4,14.8-42.6,14.9
			c-16.8-0.1-30.9-5.1-42.2-14.9c-11.5-9.5-17.4-22.4-17.5-38.6V122z" />
        </g>
        <polygon i:knockout="Off" fill="#22B573" points="594.8,207.6 711.4,8 747,41 594.8,277.4 500.3,157.1 531.9,116.9 	" />
        <circle i:knockout="Off" fill="#22B573" cx="515.7" cy="254.5" r="22.5" />
    </g>
</svg>
