<?xml version="1.0" encoding="utf-8"?>
<!-- Generator: Adobe Illustrator 19.1.0, SVG Export Plug-In . SVG Version: 6.00 Build 0)  -->
<svg version="1.1"
	 xmlns:x="extend;" xmlns:i="ai;" xmlns:graph="graphs;" i:viewOrigin="76.1356 -295.1017" i:rulerOrigin="-76.1356 423.9153" i:pageBounds="76.1356 -295.1017 510.8813 -423.9153"
	 xmlns="http://www.w3.org/2000/svg" xmlns:xlink="http://www.w3.org/1999/xlink" xmlns:a="http://ns.adobe.com/AdobeSVGViewerExtensions/3.0/"
	 x="0px" y="0px" viewBox="0 0 434.7 128.8" enable-background="new 0 0 434.7 128.8" xml:space="preserve">
<metadata>
	<variableSets  xmlns="vars;">
		<variableSet  varSetName="binding1" locked="none">
			<variables></variables>
			<v:sampleDataSets  xmlns:v="vars;" xmlns="custom;"></v:sampleDataSets>
		</variableSet>
	</variableSets>
</metadata>
<g id="White" i:layer="yes" i:dimmedPercent="50" i:rgbTrio="#4F008000FFFF">
	<g i:knockout="Off">
		<g>
			<path i:knockout="Off" fill="#FFFFFF" d="M266.3,87.5c0-7.6,0.2-12.7,0.6-15.2c0.5-2.6,1.2-4.6,2.1-6.2c1.5-3,4-5.7,7.4-8
				c3.3-2.4,7.5-3.6,12.4-3.7c5,0.1,9.2,1.3,12.6,3.7c3.3,2.4,5.7,5,7.2,8.1c1.1,1.6,1.8,3.7,2.2,6.2c0.4,2.6,0.6,7.6,0.6,15.2
				c0,7.5-0.2,12.5-0.6,15.1c-0.4,2.6-1.1,4.7-2.2,6.3c-1.5,3-3.9,5.7-7.2,8c-3.3,2.4-7.5,3.6-12.6,3.8c-5-0.1-9.1-1.4-12.4-3.8
				c-3.4-2.3-5.8-5-7.4-8c-0.5-1-0.9-1.9-1.3-2.8c-0.3-0.9-0.6-2.1-0.9-3.5C266.5,100,266.3,95,266.3,87.5z M275.9,87.5
				c0,6.4,0.2,10.8,0.7,13c0.4,2.3,1.2,4.1,2.5,5.5c1,1.3,2.3,2.4,4,3.3c1.6,1,3.6,1.5,5.8,1.5c2.3,0,4.3-0.5,5.9-1.5
				c1.6-0.8,2.9-1.9,3.8-3.3c1.2-1.4,2.1-3.2,2.6-5.5c0.4-2.3,0.7-6.6,0.7-13c0-6.4-0.2-10.8-0.7-13.1c-0.5-2.2-1.3-4-2.6-5.4
				c-1-1.3-2.2-2.5-3.8-3.4c-1.7-0.9-3.7-1.3-5.9-1.4c-2.3,0.1-4.2,0.5-5.8,1.4c-1.6,0.9-3,2-4,3.4c-1.2,1.4-2.1,3.2-2.5,5.4
				C276.1,76.7,275.9,81.1,275.9,87.5z"/>
			<path i:knockout="Off" fill="#FFFFFF" d="M342.6,63.7h-17.3v-8.8h44.2v8.8h-17.3v56.5h-9.6V63.7z"/>
			<path i:knockout="Off" fill="#FFFFFF" d="M386.8,54.9h40.4v9.3h-30.8v18.7h26.3v8.8h-26.3v19.2h30.8v9.3h-40.4V54.9z"/>
		</g>
	</g>
	<g i:knockout="Off">
		<path i:knockout="Off" fill="#FFFFFF" d="M25,63.5H7.6v-8.8h44.2v8.8H34.5v56.5H25V63.5z"/>
		<path i:knockout="Off" fill="#FFFFFF" d="M69.2,54.7h24.7c5.3,0,9.6,1.4,12.9,4.3c4,3.3,6.1,7.9,6.3,13.9
			c-0.1,8.9-4.2,14.9-12.2,18.1l14.6,28.9h-11.4L91,92.1H78.8v27.9h-9.6V54.7z M78.8,83.3h14.5c3.6-0.1,6.3-1.1,8.1-3.2
			c1.8-1.9,2.6-4.3,2.6-7.2c-0.1-3.4-1.1-5.9-3.2-7.4c-1.6-1.3-4-2-7-2h-15V83.3z"/>
		<path i:knockout="Off" fill="#FFFFFF" d="M133.1,54.7h9.6v42.1c0.1,4.4,1.3,7.8,3.7,10.2c2.4,2.4,5.4,3.7,9.2,3.7
			c3.7,0,6.8-1.2,9.2-3.7c2.4-2.3,3.6-5.7,3.6-10.2V54.7h9.6v43.1c-0.1,6.9-2.3,12.3-6.5,16.3c-4.2,4.1-9.6,6.2-16,6.3
			c-6.3-0.1-11.6-2.2-15.9-6.3c-4.3-4-6.5-9.5-6.6-16.3V54.7z"/>
	</g>
	<polygon i:knockout="Off" opacity="0.5" fill="#FFFFFF" points="228.5,82.5 281.6,5.1 299.8,25.3 228.5,124.7 190.6,78.2 
		206.9,55.7 	"/>
</g>
</svg>
